<svg xmlns="http://www.w3.org/2000/svg" viewBox="0 0 130 130" width="130" height="130" fill="none">
  
  <path d="M48 36 L65 12 L82 36 Z" fill="#6b1f1a"></path>
  <line x1="65" y1="12" x2="65" y2="6" stroke="#1a1410" stroke-width="1.5"></line>
  <circle cx="65" cy="5" r="1.8" fill="#d4a55a"></circle>
  
  <path d="M44 40 V36 H50 V40 H56 V36 H62 V40 H68 V36 H74 V40 H80 V36 H86 V40 Z" fill="#1a1410"></path>
  <line x1="44" y1="44" x2="86" y2="44" stroke="#1a1410" stroke-width="1"></line>
  
  <rect x="48" y="44" width="34" height="64" stroke="#1a1410" stroke-width="2" fill="#1a1410" fill-opacity="0.04"></rect>
  
  <path d="M56 58 Q56 48, 65 48 T74 58 V76 H56 Z" fill="#d4a55a"></path>
  
  <g fill="#0e1116">
    <path d="M65 53 L60 64 L70 64 Z"></path>
    <rect x="58.5" y="63.5" width="13" height="1.6"></rect>
    <path d="M65 65 L58 76 L72 76 Z"></path>
  </g>
  
  <rect x="63" y="82" width="4" height="9" fill="#1a1410"></rect>
  <rect x="63" y="95" width="4" height="7" fill="#1a1410"></rect>
  
  <rect x="42" y="108" width="46" height="8" stroke="#1a1410" stroke-width="2" fill="none"></rect>
  <line x1="38" y1="116" x2="92" y2="116" stroke="#1a1410" stroke-width="2"></line>
</svg>